<svg xmlns="http://www.w3.org/2000/svg" xmlns:xlink="http://www.w3.org/1999/xlink" contentStyleType="text/css" height="619px" preserveAspectRatio="none" style="width:610px;height:619px;background:#FFFFFF;" version="1.1" viewBox="0 0 610 619" width="610px" zoomAndPan="magnify"><defs/><g><!--cluster 2567a5ec9705eb7ac2c984033e06189d--><g id="cluster_2567a5ec9705eb7ac2c984033e06189d"><polygon fill="none" points="16,16,26,6,188,6,188,501.48,178,511.48,16,511.48,16,16" style="stroke:#181818;stroke-width:1.0;"/><line style="stroke:#181818;stroke-width:1.0;" x1="178" x2="188" y1="16" y2="6"/><line style="stroke:#181818;stroke-width:1.0;" x1="16" x2="178" y1="16" y2="16"/><line style="stroke:#181818;stroke-width:1.0;" x1="178" x2="178" y1="16" y2="511.48"/><text fill="#000000" font-family="sans-serif" font-size="14" font-weight="bold" lengthAdjust="spacing" textLength="35" x="80.5" y="31.9951">Web</text></g><!--cluster d77d5e503ad1439f585ac494268b351b--><g id="cluster_d77d5e503ad1439f585ac494268b351b"><polygon fill="none" points="274,16,284,6,542,6,542,501.48,532,511.48,274,511.48,274,16" style="stroke:#181818;stroke-width:1.0;"/><line style="stroke:#181818;stroke-width:1.0;" x1="532" x2="542" y1="16" y2="6"/><line style="stroke:#181818;stroke-width:1.0;" x1="274" x2="532" y1="16" y2="16"/><line style="stroke:#181818;stroke-width:1.0;" x1="532" x2="532" y1="16" y2="511.48"/><text fill="#000000" font-family="sans-serif" font-size="14" font-weight="bold" lengthAdjust="spacing" textLength="21" x="393.5" y="31.9951">Db</text></g><!--entity 04a565d19766ebe0348853b17c395bd1--><g id="elem_04a565d19766ebe0348853b17c395bd1"><rect fill="#F1F1F1" height="95.1875" rx="2.5" ry="2.5" style="stroke:#181818;stroke-width:0.5;" width="139" x="32.5" y="46"/><rect fill="#F1F1F1" height="10" style="stroke:#181818;stroke-width:0.5;" width="15" x="151.5" y="51"/><rect fill="#F1F1F1" height="2" style="stroke:#181818;stroke-width:0.5;" width="4" x="149.5" y="53"/><rect fill="#F1F1F1" height="2" style="stroke:#181818;stroke-width:0.5;" width="4" x="149.5" y="57"/><text fill="#000000" font-family="sans-serif" font-size="14" font-weight="bold" lengthAdjust="spacing" textLength="34" x="47.5" y="78.9951">web</text><text fill="#000000" font-family="sans-serif" font-size="14" lengthAdjust="spacing" textLength="4" x="47.5" y="95.292">&#160;</text><text fill="#000000" font-family="sans-serif" font-size="14" lengthAdjust="spacing" textLength="99" x="47.5" y="111.5889">restart: always</text><text fill="#000000" font-family="sans-serif" font-size="14" lengthAdjust="spacing" textLength="4" x="47.5" y="127.8857">&#160;</text></g><!--entity fd433df176955d196b161b0a41a19970--><g id="elem_fd433df176955d196b161b0a41a19970"><ellipse cx="145" cy="231.19" fill="#F1F1F1" rx="8" ry="8" style="stroke:#181818;stroke-width:0.5;"/><text fill="#000000" font-family="sans-serif" font-size="14" lengthAdjust="spacing" textLength="36" x="127" y="261.1851">8000</text></g><!--entity 3b7ffba54f1639e14e801b8c6acb33bd--><g id="elem_3b7ffba54f1639e14e801b8c6acb33bd"><rect fill="#F1F1F1" height="39.2969" rx="2.5" ry="2.5" style="stroke:#181818;stroke-width:0.5;" width="119" x="32.5" y="456.19"/><polygon fill="#F1F1F1" points="134.5,461.19,134.5,475.19,146.5,475.19,146.5,467.19,140.5,461.19,134.5,461.19" style="stroke:#181818;stroke-width:0.5;"/><line style="stroke:#181818;stroke-width:0.5;" x1="140.5" x2="140.5" y1="461.19" y2="467.19"/><line style="stroke:#181818;stroke-width:0.5;" x1="146.5" x2="140.5" y1="467.19" y2="467.19"/><text fill="#000000" font-family="sans-serif" font-size="14" lengthAdjust="spacing" textLength="89" x="42.5" y="482.1851">/usr/src/app/</text></g><!--entity 355aeb7ac3f8fa43e8d94fbf0e4b8d6c--><g id="elem_355aeb7ac3f8fa43e8d94fbf0e4b8d6c"><rect fill="#F1F1F1" height="95.1875" rx="2.5" ry="2.5" style="stroke:#181818;stroke-width:0.5;" width="235" x="290.5" y="46"/><rect fill="#F1F1F1" height="10" style="stroke:#181818;stroke-width:0.5;" width="15" x="505.5" y="51"/><rect fill="#F1F1F1" height="2" style="stroke:#181818;stroke-width:0.5;" width="4" x="503.5" y="53"/><rect fill="#F1F1F1" height="2" style="stroke:#181818;stroke-width:0.5;" width="4" x="503.5" y="57"/><text fill="#000000" font-family="sans-serif" font-size="14" font-weight="bold" lengthAdjust="spacing" textLength="20" x="305.5" y="78.9951">db</text><text fill="#000000" font-family="sans-serif" font-size="14" lengthAdjust="spacing" textLength="4" x="305.5" y="95.292">&#160;</text><text fill="#000000" font-family="sans-serif" font-size="14" lengthAdjust="spacing" textLength="195" x="305.5" y="111.5889">image: postgres:12.0-alpine</text><text fill="#000000" font-family="sans-serif" font-size="14" lengthAdjust="spacing" textLength="4" x="305.5" y="127.8857">&#160;</text></g><!--entity 43bb4cb118845f08e05e758d93c57c6e--><g id="elem_43bb4cb118845f08e05e758d93c57c6e"><ellipse cx="485" cy="231.19" fill="#F1F1F1" rx="8" ry="8" style="stroke:#181818;stroke-width:0.5;"/><text fill="#000000" font-family="sans-serif" font-size="14" lengthAdjust="spacing" textLength="36" x="467" y="261.1851">5432</text></g><!--entity a6bcfd94783d6e8f719cef1ba92ab15b--><g id="elem_a6bcfd94783d6e8f719cef1ba92ab15b"><rect fill="#F1F1F1" height="39.2969" rx="2.5" ry="2.5" style="stroke:#181818;stroke-width:0.5;" width="194" x="311" y="456.19"/><polygon fill="#F1F1F1" points="488,461.19,488,475.19,500,475.19,500,467.19,494,461.19,488,461.19" style="stroke:#181818;stroke-width:0.5;"/><line style="stroke:#181818;stroke-width:0.5;" x1="494" x2="494" y1="461.19" y2="467.19"/><line style="stroke:#181818;stroke-width:0.5;" x1="500" x2="494" y1="467.19" y2="467.19"/><text fill="#000000" font-family="sans-serif" font-size="14" lengthAdjust="spacing" textLength="164" x="321" y="482.1851">/var/lib/postgresql/data/</text></g><!--entity 1624c420083928ef3e240dd88f2e52f0--><g id="elem_1624c420083928ef3e240dd88f2e52f0"><ellipse cx="231" cy="366.19" fill="#F1F1F1" rx="8" ry="8" style="stroke:#181818;stroke-width:0.5;"/><text fill="#000000" font-family="sans-serif" font-size="14" lengthAdjust="spacing" textLength="36" x="213" y="396.1851">8000</text></g><!--entity 3fe19f690db3549d7f8634d7c049723c--><g id="elem_3fe19f690db3549d7f8634d7c049723c"><ellipse cx="585" cy="366.19" fill="#F1F1F1" rx="8" ry="8" style="stroke:#181818;stroke-width:0.5;"/><text fill="#000000" font-family="sans-serif" font-size="14" lengthAdjust="spacing" textLength="36" x="567" y="396.1851">5435</text></g><!--entity 58b9e70b65a77700ba66e9c64d6b9f89--><g id="elem_58b9e70b65a77700ba66e9c64d6b9f89"><rect fill="#F1F1F1" height="39.2969" rx="2.5" ry="2.5" style="stroke:#181818;stroke-width:0.5;" width="34" x="75" y="574.48"/><polygon fill="#F1F1F1" points="92,579.48,92,593.48,104,593.48,104,585.48,98,579.48,92,579.48" style="stroke:#181818;stroke-width:0.5;"/><line style="stroke:#181818;stroke-width:0.5;" x1="98" x2="98" y1="579.48" y2="585.48"/><line style="stroke:#181818;stroke-width:0.5;" x1="104" x2="98" y1="585.48" y2="585.48"/><text fill="#000000" font-family="sans-serif" font-size="14" lengthAdjust="spacing" textLength="4" x="85" y="600.4751">.</text></g><!--entity 1b3bff591894c324e6d0194254b68417--><g id="elem_1b3bff591894c324e6d0194254b68417"><rect fill="#F1F1F1" height="39.2969" rx="2.5" ry="2.5" style="stroke:#181818;stroke-width:0.5;" width="129" x="343.5" y="574.48"/><polygon fill="#F1F1F1" points="455.5,579.48,455.5,593.48,467.5,593.48,467.5,585.48,461.5,579.48,455.5,579.48" style="stroke:#181818;stroke-width:0.5;"/><line style="stroke:#181818;stroke-width:0.5;" x1="461.5" x2="461.5" y1="579.48" y2="585.48"/><line style="stroke:#181818;stroke-width:0.5;" x1="467.5" x2="461.5" y1="585.48" y2="585.48"/><text fill="#000000" font-family="sans-serif" font-size="14" lengthAdjust="spacing" textLength="99" x="353.5" y="600.4751">postgres_data</text></g><!--link 04a565d19766ebe0348853b17c395bd1 to fd433df176955d196b161b0a41a19970--><g id="link_04a565d19766ebe0348853b17c395bd1_fd433df176955d196b161b0a41a19970"><path codeLine="26" d="M116.92,141.64 C126.33,171.31 137.6,206.86 142.51,222.34 " fill="none" id="04a565d19766ebe0348853b17c395bd1-fd433df176955d196b161b0a41a19970" style="stroke:#181818;stroke-width:1.0;"/></g><!--link fd433df176955d196b161b0a41a19970 to 1624c420083928ef3e240dd88f2e52f0--><g id="link_fd433df176955d196b161b0a41a19970_1624c420083928ef3e240dd88f2e52f0"><path codeLine="27" d="M150.12,240.11 C165.45,263.82 210.86,334.04 226.01,357.47 " fill="none" id="fd433df176955d196b161b0a41a19970-1624c420083928ef3e240dd88f2e52f0" style="stroke:#181818;stroke-width:1.0;"/></g><!--link 3b7ffba54f1639e14e801b8c6acb33bd to 58b9e70b65a77700ba66e9c64d6b9f89--><g id="link_3b7ffba54f1639e14e801b8c6acb33bd_58b9e70b65a77700ba66e9c64d6b9f89"><path codeLine="28" d="M92,495.78 C92,517.4 92,552.57 92,574.2 " fill="none" id="3b7ffba54f1639e14e801b8c6acb33bd-58b9e70b65a77700ba66e9c64d6b9f89" style="stroke:#181818;stroke-width:1.0;"/><text fill="#000000" font-family="sans-serif" font-size="13" lengthAdjust="spacing" textLength="14" x="93" y="540.5469">rw</text></g><!--link 04a565d19766ebe0348853b17c395bd1 to 3b7ffba54f1639e14e801b8c6acb33bd--><g id="link_04a565d19766ebe0348853b17c395bd1_3b7ffba54f1639e14e801b8c6acb33bd"><path codeLine="29" d="M100.76,141.6 C98.55,225.65 94.1676,392.2721 92.6576,449.7521 " fill="none" id="04a565d19766ebe0348853b17c395bd1-to-3b7ffba54f1639e14e801b8c6acb33bd" style="stroke:#181818;stroke-width:1.0;stroke-dasharray:7.0,7.0;"/><polygon fill="#181818" points="92.5,455.75,96.735,446.8581,92.6313,450.7517,88.7377,446.6481,92.5,455.75" style="stroke:#181818;stroke-width:1.0;"/><text fill="#000000" font-family="sans-serif" font-size="13" lengthAdjust="spacing" textLength="23" x="97" y="303.2569">use</text></g><!--link 355aeb7ac3f8fa43e8d94fbf0e4b8d6c to 43bb4cb118845f08e05e758d93c57c6e--><g id="link_355aeb7ac3f8fa43e8d94fbf0e4b8d6c_43bb4cb118845f08e05e758d93c57c6e"><path codeLine="30" d="M434.71,141.64 C451.57,171.31 471.76,206.86 480.55,222.34 " fill="none" id="355aeb7ac3f8fa43e8d94fbf0e4b8d6c-43bb4cb118845f08e05e758d93c57c6e" style="stroke:#181818;stroke-width:1.0;"/></g><!--link 43bb4cb118845f08e05e758d93c57c6e to 3fe19f690db3549d7f8634d7c049723c--><g id="link_43bb4cb118845f08e05e758d93c57c6e_3fe19f690db3549d7f8634d7c049723c"><path codeLine="31" d="M490.96,240.11 C508.78,263.82 561.58,334.04 579.2,357.47 " fill="none" id="43bb4cb118845f08e05e758d93c57c6e-3fe19f690db3549d7f8634d7c049723c" style="stroke:#181818;stroke-width:1.0;"/></g><!--link a6bcfd94783d6e8f719cef1ba92ab15b to 1b3bff591894c324e6d0194254b68417--><g id="link_a6bcfd94783d6e8f719cef1ba92ab15b_1b3bff591894c324e6d0194254b68417"><path codeLine="32" d="M408,495.78 C408,517.4 408,552.57 408,574.2 " fill="none" id="a6bcfd94783d6e8f719cef1ba92ab15b-1b3bff591894c324e6d0194254b68417" style="stroke:#181818;stroke-width:1.0;"/><text fill="#000000" font-family="sans-serif" font-size="13" lengthAdjust="spacing" textLength="14" x="409" y="540.5469">rw</text></g><!--link 355aeb7ac3f8fa43e8d94fbf0e4b8d6c to a6bcfd94783d6e8f719cef1ba92ab15b--><g id="link_355aeb7ac3f8fa43e8d94fbf0e4b8d6c_a6bcfd94783d6e8f719cef1ba92ab15b"><path codeLine="33" d="M408,141.6 C408,225.65 408,392.27 408,449.75 " fill="none" id="355aeb7ac3f8fa43e8d94fbf0e4b8d6c-to-a6bcfd94783d6e8f719cef1ba92ab15b" style="stroke:#181818;stroke-width:1.0;stroke-dasharray:7.0,7.0;"/><polygon fill="#181818" points="408,455.75,412,446.75,408,450.75,404,446.75,408,455.75" style="stroke:#181818;stroke-width:1.0;"/><text fill="#000000" font-family="sans-serif" font-size="13" lengthAdjust="spacing" textLength="23" x="409" y="303.2569">use</text></g><!--SRC=[XPBBZXen44Nt_HMjNasGXhPTLNwmo2h_a4KKHLLs6I4nG6Wc98hoxscQGPfPUMzVttDyURy_NbzsltU7RNSu5ks7hof3prFlo0ScpIaOKWcSNKuH3O0QRsCg_T-kpyUNq_6WXqjlaCbJiIbuhw86C4O2iI538Ycs_zQjLbULrQhhpZfT-7pPzBo_yf-fwxvtJv_w8HfZbfThGO1IRV29Rf5UhBTY62tRDDVfvikxoldI3-FhT1wdSnxvT1gNoo2XLc72QZqajQZHM8dPSnO0ATs_DyulTymIGY4b0rmiGgeKYJCcT3uAa9MFc434YmoeiJA2nfAmIZMA4elF2sPPA7SllDLDVpfEb-rClB5kRPvvVzeTz45C26ufWI22MQoD4QcQgBFoG7CsP0hPwtlYNtmUzpiP7y4_zsFX2z_fsKkkSwKGeNYDDTYKjLhXv5WioKp_GRNr3ZCwOo8a5xM2EZIbn5YTaglcKPFkRglQL7qoPLQ3gOGQFM09sM0A3lAxcklb0aL96enuuX22CSBpEbBsMBoa6jEx2m-S7pUOUpS1gPNIF3RCu51zCNR-64Bn4MtecfjxBi_jCRKEB2bDJwtPBIaj7Vsc7yxNeGssNfVr-dDpwxUyrqc7hZdRMxlc25i7bfJsHXeJlVjk_Ft3L1FipLJpqJTJ_m40]--></g></svg>